{
  "title": "Inside.Out.2015.HDTURBO.TS.XviD.AC3-SUPERCHiVED",
  "uid": 12165571,
  "size": 1054919305,
  "categoryP": "video",
  "categoryS": "movies",
  "magnet": "?xt=urn:btih:4a979ccc711d96bdb4697ade06a52e25ce249f5b&amp;dn=Inside.Out.2015.HDTURBO.TS.XviD.AC3-SUPERCHiVED&amp;tr=udp%3A%2F%2Ftracker.openbittorrent.com%3A80&amp;tr=udp%3A%2F%2Fopen.demonii.com%3A1337&amp;tr=udp%3A%2F%2Ftracker.coppersurfer.tk%3A6969&amp;tr=udp%3A%2F%2Fexodus.desync.com%3A6969",
  "seeders": 207,
  "leechers": 59,
  "uploader": "xxxlavalxxx",
  "files": 4,
  "time": 1438021485,
  "description": " &lt;a href=&quot;http://extraimago.com/image/nFX&quot; rel=&quot;nofollow&quot; target=&quot;_NEW&quot;&gt;http://extraimago.com/image/nFX&lt;/a&gt;\n &lt;a href=&quot;\nhttp://www.imdb.com/title/tt2096673/&quot; rel=&quot;nofollow&quot; target=&quot;_NEW&quot;&gt;\nhttp://www.imdb.com/title/tt2096673/&lt;/a&gt;\n\n\nAfter young Riley is uprooted from her Midwest life and moved to San Francisco, her emotions - Joy, Fear, Anger, Disgust and Sadness - conflict on how best to navigate a new city, house and school.\n\nDirectors: Pete Docter, Ronaldo Del Carmen\nWriters: Pete Docter (story), Ronaldo Del Carmen (story) (as Ronnie del Carmen) \nStars: Amy Poehler, Bill Hader, Lewis Black \nGenres: Animation | Comedy | Drama | Family\nCountry: USA\nLanguage: English\n\n\nInside.Out.2015.HDTURBO.TS.XviD.AC3-SUPERCHiVED\n\nSource: Video-Pelis24 Audio-CHiVE\n\ntook your audio and muxed it to my vid which i filtered with no filters and i just named it like this for HITS !!!!!\n &lt;a href=&quot;\nhttp://www.imdb.com/title/tt2096673/&quot; rel=&quot;nofollow&quot; target=&quot;_NEW&quot;&gt;\nhttp://www.imdb.com/title/tt2096673/&lt;/a&gt;\n\nGeneral\nComplete name: Inside.Out.2015.HDTURBO.TS.XviD.AC3-SUPERCHiVED.avi\nFormat: AVI\nFormat/Info: Audio Video Interleave\nFile size: 979 MiB\nDuration: 1h 28mn\nOverall bit rate: 1 540 Kbps\n\nVideo\nID: 0\nFormat: MPEG-4 Visual\nFormat profile: Advanced Simple@L5\nFormat settings, BVOP: 2\nFormat settings, QPel: No\nFormat settings, GMC: No warppoints\nFormat settings, Matrix: Default (H.263)\nMuxing mode: Packed bitstream\nCodec ID: XVID\nCodec ID/Hint: XviD\nDuration: 1h 28mn\nBit rate: 1 339 Kbps\nWidth: 720 pixels\nHeight: 400 pixels\nDisplay aspect ratio: 16:9\nFrame rate: 29.970 fps\nColor space: YUV\nChroma subsampling: 4:2:0\nBit depth: 8 bits\nScan type: Progressive\nCompression mode: Lossy\nBits/(Pixel*Frame): 0.155\nStream size: 852 MiB (87%)\nWriting library: XviD 64\n\nAudio\nID: 1\nFormat: AC-3\nFormat/Info: Audio Coding 3\nMode extension: CM (complete main)\nFormat settings, Endianness: Big\nCodec ID: 2000\nDuration: 1h 28mn\nBit rate mode: Constant\nBit rate: 192 Kbps\nChannel(s): 2 channels\nChannel positions: Front: L R\nSampling rate: 44.1 KHz\nCompression mode: Lossy\nStream size: 122 MiB (12%)\nAlignment: Aligned on interleaves\nInterleave, duration: 70 ms (2.09 video frames)\nInterleave, preload duration: 208 ms\nTitle: Inside.avi_track_1_ \n\n &lt;a href=&quot;\nhttp://extraimago.com/image/Ocd&quot; rel=&quot;nofollow&quot; target=&quot;_NEW&quot;&gt;\nhttp://extraimago.com/image/Ocd&lt;/a&gt; &lt;a href=&quot;\nhttp://extraimago.com/image/Och&quot; rel=&quot;nofollow&quot; target=&quot;_NEW&quot;&gt;\nhttp://extraimago.com/image/Och&lt;/a&gt; &lt;a href=&quot;\nhttp://extraimago.com/image/Ocb&quot; rel=&quot;nofollow&quot; target=&quot;_NEW&quot;&gt;\nhttp://extraimago.com/image/Ocb&lt;/a&gt; &lt;a href=&quot;\nhttp://extraimago.com/image/Oc3&quot; rel=&quot;nofollow&quot; target=&quot;_NEW&quot;&gt;\nhttp://extraimago.com/image/Oc3&lt;/a&gt; &lt;a href=&quot;\nhttp://extraimago.com/image/Oc9&quot; rel=&quot;nofollow&quot; target=&quot;_NEW&quot;&gt;\nhttp://extraimago.com/image/Oc9&lt;/a&gt; &lt;a href=&quot;\nhttp://extraimago.com/image/OcM&quot; rel=&quot;nofollow&quot; target=&quot;_NEW&quot;&gt;\nhttp://extraimago.com/image/OcM&lt;/a&gt; &lt;a href=&quot;\nhttp://extraimago.com/image/OcU&quot; rel=&quot;nofollow&quot; target=&quot;_NEW&quot;&gt;\nhttp://extraimago.com/image/OcU&lt;/a&gt; &lt;a href=&quot;\nhttp://extraimago.com/image/Ocz&quot; rel=&quot;nofollow&quot; target=&quot;_NEW&quot;&gt;\nhttp://extraimago.com/image/Ocz&lt;/a&gt; &lt;a href=&quot;\nhttp://extraimago.com/image/Oc0&quot; rel=&quot;nofollow&quot; target=&quot;_NEW&quot;&gt;\nhttp://extraimago.com/image/Oc0&lt;/a&gt; &lt;a href=&quot;\nhttp://extraimago.com/image/OcJ&quot; rel=&quot;nofollow&quot; target=&quot;_NEW&quot;&gt;\nhttp://extraimago.com/image/OcJ&lt;/a&gt;",
  "parsed": {
    "xt": "urn:btih:4a979ccc711d96bdb4697ade06a52e25ce249f5b",
    "dn": "Inside.Out.2015.HDTURBO.TS.XviD.AC3-SUPERCHiVED",
    "tr": [
      "udp://exodus.desync.com:6969",
      "udp://open.demonii.com:1337",
      "udp://tracker.coppersurfer.tk:6969",
      "udp://tracker.openbittorrent.com:80"
    ],
    "infoHash": "4a979ccc711d96bdb4697ade06a52e25ce249f5b",
    "infoHashBuffer": {
      "type": "Buffer",
      "data": [
        74,
        151,
        156,
        204,
        113,
        29,
        150,
        189,
        180,
        105,
        122,
        222,
        6,
        165,
        46,
        37,
        206,
        36,
        159,
        91
      ]
    },
    "name": "Inside.Out.2015.HDTURBO.TS.XviD.AC3-SUPERCHiVED",
    "announce": [
      "udp://exodus.desync.com:6969",
      "udp://open.demonii.com:1337",
      "udp://tracker.coppersurfer.tk:6969",
      "udp://tracker.openbittorrent.com:80"
    ],
    "urlList": []
  },
  "previous": 266,
  "peers": 27,
  "last_updated": "2016-12-25T00:17:46.296Z"
}